<mxfile host="app.diagrams.net" modified="2022-03-22T07:05:42.430Z" agent="5.0 (Windows NT 10.0; Win64; x64) AppleWebKit/537.36 (KHTML, like Gecko) Chrome/99.0.4844.74 Safari/537.36 Edg/99.0.1150.46" etag="ZYdOej_9YmQl_sHlbxBT" version="17.1.2" type="github">
  <diagram id="fE7-_PAePpK6r60mk1KZ" name="Page-1">
    <mxGraphModel dx="782" dy="514" grid="1" gridSize="10" guides="1" tooltips="1" connect="1" arrows="1" fold="1" page="1" pageScale="1" pageWidth="827" pageHeight="1169" math="0" shadow="0">
      <root>
        <mxCell id="0" />
        <mxCell id="1" parent="0" />
        <mxCell id="sjtjVFt2vNIiDmkL7wlw-12" style="edgeStyle=none;rounded=0;orthogonalLoop=1;jettySize=auto;html=1;entryX=0.5;entryY=0;entryDx=0;entryDy=0;" edge="1" parent="1" source="sjtjVFt2vNIiDmkL7wlw-1" target="sjtjVFt2vNIiDmkL7wlw-3">
          <mxGeometry relative="1" as="geometry" />
        </mxCell>
        <mxCell id="sjtjVFt2vNIiDmkL7wlw-1" value="作品&lt;br&gt;（被象征化了的表现）" style="rounded=0;whiteSpace=wrap;html=1;" vertex="1" parent="1">
          <mxGeometry x="294" y="70" width="136" height="60" as="geometry" />
        </mxCell>
        <mxCell id="sjtjVFt2vNIiDmkL7wlw-11" style="edgeStyle=none;rounded=0;orthogonalLoop=1;jettySize=auto;html=1;entryX=0.25;entryY=1;entryDx=0;entryDy=0;" edge="1" parent="1" source="sjtjVFt2vNIiDmkL7wlw-2" target="sjtjVFt2vNIiDmkL7wlw-1">
          <mxGeometry relative="1" as="geometry" />
        </mxCell>
        <mxCell id="sjtjVFt2vNIiDmkL7wlw-2" value="理知感觉" style="rounded=0;whiteSpace=wrap;html=1;" vertex="1" parent="1">
          <mxGeometry x="174" y="200" width="120" height="60" as="geometry" />
        </mxCell>
        <mxCell id="sjtjVFt2vNIiDmkL7wlw-13" style="edgeStyle=none;rounded=0;orthogonalLoop=1;jettySize=auto;html=1;" edge="1" parent="1" source="sjtjVFt2vNIiDmkL7wlw-3" target="sjtjVFt2vNIiDmkL7wlw-5">
          <mxGeometry relative="1" as="geometry" />
        </mxCell>
        <mxCell id="sjtjVFt2vNIiDmkL7wlw-3" value="理知感觉" style="rounded=0;whiteSpace=wrap;html=1;" vertex="1" parent="1">
          <mxGeometry x="430" y="200" width="120" height="60" as="geometry" />
        </mxCell>
        <mxCell id="sjtjVFt2vNIiDmkL7wlw-10" style="edgeStyle=none;rounded=0;orthogonalLoop=1;jettySize=auto;html=1;entryX=0.5;entryY=1;entryDx=0;entryDy=0;" edge="1" parent="1" source="sjtjVFt2vNIiDmkL7wlw-4" target="sjtjVFt2vNIiDmkL7wlw-2">
          <mxGeometry relative="1" as="geometry" />
        </mxCell>
        <mxCell id="sjtjVFt2vNIiDmkL7wlw-4" value="心象" style="rounded=0;whiteSpace=wrap;html=1;" vertex="1" parent="1">
          <mxGeometry x="120" y="330" width="120" height="60" as="geometry" />
        </mxCell>
        <mxCell id="sjtjVFt2vNIiDmkL7wlw-14" style="edgeStyle=none;rounded=0;orthogonalLoop=1;jettySize=auto;html=1;" edge="1" parent="1" source="sjtjVFt2vNIiDmkL7wlw-5" target="sjtjVFt2vNIiDmkL7wlw-8">
          <mxGeometry relative="1" as="geometry" />
        </mxCell>
        <mxCell id="sjtjVFt2vNIiDmkL7wlw-5" value="心象" style="rounded=0;whiteSpace=wrap;html=1;" vertex="1" parent="1">
          <mxGeometry x="490" y="330" width="120" height="60" as="geometry" />
        </mxCell>
        <mxCell id="sjtjVFt2vNIiDmkL7wlw-9" style="rounded=0;orthogonalLoop=1;jettySize=auto;html=1;entryX=0.5;entryY=1;entryDx=0;entryDy=0;" edge="1" parent="1" source="sjtjVFt2vNIiDmkL7wlw-7" target="sjtjVFt2vNIiDmkL7wlw-4">
          <mxGeometry relative="1" as="geometry" />
        </mxCell>
        <mxCell id="sjtjVFt2vNIiDmkL7wlw-7" value="作家的无意识心理" style="ellipse;whiteSpace=wrap;html=1;" vertex="1" parent="1">
          <mxGeometry x="90" y="460" width="120" height="80" as="geometry" />
        </mxCell>
        <mxCell id="sjtjVFt2vNIiDmkL7wlw-8" value="作家的无意识心理" style="ellipse;whiteSpace=wrap;html=1;" vertex="1" parent="1">
          <mxGeometry x="550" y="460" width="120" height="80" as="geometry" />
        </mxCell>
        <mxCell id="sjtjVFt2vNIiDmkL7wlw-15" value="" style="endArrow=none;dashed=1;html=1;dashPattern=1 3;strokeWidth=2;rounded=0;" edge="1" parent="1">
          <mxGeometry width="50" height="50" relative="1" as="geometry">
            <mxPoint x="60" y="440" as="sourcePoint" />
            <mxPoint x="680" y="440" as="targetPoint" />
          </mxGeometry>
        </mxCell>
      </root>
    </mxGraphModel>
  </diagram>
</mxfile>
